<?xml version="1.0" encoding="UTF-8"?>
<svg id="Camada_1" data-name="Camada 1" xmlns="http://www.w3.org/2000/svg" viewBox="0 0 2080 1679">
  <defs>
    <style>
      .cls-1 {
        fill: #FFFFFF;
      }

      .cls-2 {
        fill: #FFFFFF;
      }
    </style>
  </defs>
  <g>
    <path class="cls-2" d="M665.55,870.19c0-327.59,245.66-604.39,582.74-693.76H150c67.43,0,122.08,49.63,122.08,110.88v1108.8c0,61.25-54.64,110.88-122.08,110.88h943.79c-255.04-122.55-428.24-361.78-428.24-636.81Z"/>
    <path class="cls-2" d="M1374.51,172c-43.26,0-85.4,4.48-125.83,13-246.2,51.76-429.7,252.19-429.7,491.6s183.5,439.8,429.7,491.56c40.43,8.52,82.57,12.99,125.83,12.99,306.8,0,555.49-225.89,555.49-504.55s-248.69-504.59-555.49-504.59Z"/>
  </g>
  <path class="cls-1" d="M1614.51,1285.24c-67.43,0-122.08,49.63-122.08,110.88s54.64,110.88,122.08,110.88,122.07-49.63,122.07-110.88-54.64-110.88-122.07-110.88Z"/>
</svg>